<svg width="100" height="40" viewBox="0 0 100 40" fill="none" xmlns="http://www.w3.org/2000/svg">
<path d="M40.1341 15.0223L39.0945 16.1822V18.6593H37.0417V9.41577H39.0945V13.3018L42.4599 9.41577H45.1628L41.577 13.4186L45.1766 18.6607H42.6166L40.1341 15.0223Z" fill="#006633"/>
<path d="M47.71 18.659H45.7348V12.1791H47.6448V12.9218C47.9955 12.3084 48.7883 12.0094 49.4509 12.0094C51.0754 12.0094 51.8031 13.1694 51.8031 14.5908V18.659H49.8279V14.9302C49.8279 14.2918 49.4897 13.8092 48.7759 13.8092C48.1258 13.8092 47.71 14.2918 47.71 14.9441V18.659Z" fill="#006633"/>
<path d="M59.5612 15.4124C59.5612 17.4207 58.067 18.8547 56.1307 18.8547C54.2082 18.8547 52.7001 17.4207 52.7001 15.4124C52.7001 13.404 54.2068 11.9825 56.1307 11.9825C58.067 11.9839 59.5612 13.404 59.5612 15.4124ZM57.5861 15.4124C57.5861 14.3178 56.8847 13.8087 56.1307 13.8087C55.3905 13.8087 54.6753 14.3178 54.6753 15.4124C54.6753 16.4944 55.3905 17.0285 56.1307 17.0285C56.8847 17.0299 57.5861 16.5084 57.5861 15.4124Z" fill="#006633"/>
<path d="M66.1105 12.1786L67.3704 16.0257L68.4488 12.1786H70.3852L68.3837 18.6586H66.421L65.0183 14.4735L63.6405 18.6586H61.639L59.6125 12.1786H61.6653L62.7437 16.0118L64.0175 12.1786H66.1105Z" fill="#006633"/>
<path d="M73.2568 9.41577H75.6602L77.5439 12.8456L79.4539 9.41577H81.741L78.5059 14.8011V18.6607H76.4531V14.8011L73.2568 9.41577Z" fill="#006633"/>
<path d="M87.4861 15.4124C87.4861 17.4207 85.9919 18.8547 84.0555 18.8547C82.1331 18.8547 80.625 17.4207 80.625 15.4124C80.625 13.404 82.1317 11.9825 84.0555 11.9825C85.9919 11.9839 87.4861 13.404 87.4861 15.4124ZM85.5109 15.4124C85.5109 14.3178 84.8096 13.8087 84.0555 13.8087C83.3154 13.8087 82.6002 14.3178 82.6002 15.4124C82.6002 16.4944 83.3154 17.0285 84.0555 17.0285C84.8096 17.0299 85.5109 16.5084 85.5109 15.4124Z" fill="#006633"/>
<path d="M92.5667 18.0077C92.2285 18.5682 91.4883 18.8032 90.8383 18.8032C89.2665 18.8032 88.3821 17.6558 88.3821 16.2733V12.1786H90.3573V15.856C90.3573 16.4819 90.6955 16.9771 91.3969 16.9771C92.0594 16.9771 92.4752 16.5209 92.4752 15.8686V12.1786H94.4504V17.4986C94.4504 18.0856 94.5017 18.5543 94.5155 18.6586H92.618C92.593 18.5418 92.5667 18.176 92.5667 18.0077Z" fill="#006633"/>
<path d="M99.9999 14.1345C99.7795 14.083 99.5716 14.0691 99.3762 14.0691C98.5833 14.0691 97.8695 14.5378 97.8695 15.8299V18.6589H95.8943V12.179H97.8044V13.0524C98.1426 12.3222 98.9604 12.1136 99.4801 12.1136C99.6756 12.1136 99.8696 12.14 99.9999 12.179V14.1345Z" fill="#006633"/>
<path d="M36.5095 25.7855C36.5095 22.9037 38.6926 20.9482 41.2652 20.9482C44.0332 20.9482 45.2543 22.734 45.5537 24.0651L43.6173 24.6784C43.4746 24.04 42.8896 22.958 41.2652 22.958C40.0302 22.958 38.6399 23.8439 38.6399 25.7869C38.6399 27.5213 39.9137 28.5255 41.2901 28.5255C42.8883 28.5255 43.5245 27.4559 43.7074 26.7911L45.6701 27.3516C45.3707 28.6298 44.1496 30.5853 41.2915 30.5853C38.6399 30.5839 36.5095 28.6674 36.5095 25.7855Z" fill="#006633"/>
<path d="M48.3214 26.6465L49.8419 26.4115C50.1926 26.36 50.309 26.1903 50.309 25.9678C50.309 25.5895 49.9846 25.264 49.3609 25.264C48.672 25.264 48.295 25.7328 48.2562 26.2154L46.5416 25.8635C46.6192 24.9372 47.4772 23.7119 49.3748 23.7119C51.4664 23.7119 52.2329 24.8857 52.2329 26.2154V29.3837C52.2329 29.8928 52.298 30.3225 52.3105 30.3879H50.5308C50.5183 30.3364 50.4656 30.1014 50.4656 29.6577C50.1274 30.2057 49.5037 30.5701 48.6471 30.5701C47.2305 30.5701 46.4127 29.6313 46.4127 28.6007C46.4113 27.4546 47.2555 26.8037 48.3214 26.6465ZM50.309 27.8468V27.5603L49.0879 27.7564C48.672 27.8218 48.3602 28.0179 48.3602 28.4741C48.3602 28.8135 48.5806 29.1389 49.1267 29.1389C49.7116 29.1375 50.309 28.8496 50.309 27.8468Z" fill="#006633"/>
<path d="M55.8716 30.3889H53.8964V23.9076H55.8064V24.6503C56.1571 24.0369 56.95 23.7379 57.6125 23.7379C59.237 23.7379 59.9647 24.8979 59.9647 26.3193V30.3875H57.9895V26.6587C57.9895 26.0203 57.6513 25.5377 56.9375 25.5377C56.2874 25.5377 55.8716 26.0203 55.8716 26.6726V30.3889Z" fill="#006633"/>
<path d="M67.9816 29.2285C67.9816 29.8154 68.0204 30.2452 68.0329 30.3884H66.1354C66.1229 30.3106 66.0827 30.0226 66.0827 29.7626C65.7833 30.2062 65.1346 30.5317 64.3543 30.5317C62.5357 30.5317 61.158 29.1228 61.158 27.1283C61.158 25.1992 62.4581 23.7513 64.2891 23.7513C65.3938 23.7513 65.8748 24.1686 66.03 24.4162V20.9474H67.9789V29.2285H67.9816ZM64.6024 28.7598C65.3689 28.7598 66.0577 28.2118 66.0577 27.1436C66.0577 26.0615 65.3689 25.54 64.6024 25.54C63.8359 25.54 63.147 26.0615 63.147 27.1436C63.147 28.2118 63.8359 28.7598 64.6024 28.7598Z" fill="#006633"/>
<path d="M70.7357 20.7667C71.3858 20.7667 71.9056 21.2883 71.9056 21.9267C71.9056 22.5651 71.3858 23.0867 70.7357 23.0867C70.112 23.0867 69.5922 22.5651 69.5922 21.9267C69.5922 21.2883 70.112 20.7667 70.7357 20.7667ZM69.7613 30.39V23.9086H71.7365V30.3886H69.7613V30.39Z" fill="#006633"/>
<path d="M79.8187 29.2285C79.8187 29.8154 79.8575 30.2452 79.8714 30.3884H77.9738C77.9613 30.3106 77.9211 30.0226 77.9211 29.7626C77.6217 30.2062 76.9731 30.5317 76.1927 30.5317C74.3742 30.5317 72.9964 29.1228 72.9964 27.1283C72.9964 25.1992 74.2965 23.7513 76.1276 23.7513C77.2323 23.7513 77.7132 24.1686 77.8685 24.4162V20.9474H79.8173V29.2285H79.8187ZM76.4408 28.7598C77.2073 28.7598 77.8962 28.2118 77.8962 27.1436C77.8962 26.0615 77.2073 25.54 76.4408 25.54C75.6743 25.54 74.9854 26.0615 74.9854 27.1436C74.9854 28.2118 75.6743 28.7598 76.4408 28.7598Z" fill="#006633"/>
<path d="M83.0552 26.6465L84.5758 26.4115C84.9264 26.36 85.0429 26.1903 85.0429 25.9678C85.0429 25.5895 84.7185 25.264 84.0948 25.264C83.4059 25.264 83.0289 25.7328 82.9901 26.2154L81.2755 25.8635C81.3531 24.9372 82.2111 23.7119 84.1087 23.7119C86.2002 23.7119 86.9668 24.8857 86.9668 26.2154V29.3837C86.9668 29.8928 87.0319 30.3225 87.0444 30.3879H85.2646C85.2522 30.3364 85.1995 30.1014 85.1995 29.6577C84.8613 30.2057 84.2376 30.5701 83.381 30.5701C81.9644 30.5701 81.1466 29.6313 81.1466 28.6007C81.1452 27.4546 81.9893 26.8037 83.0552 26.6465ZM85.0429 27.8468V27.5603L83.8217 27.7564C83.4059 27.8218 83.094 28.0179 83.094 28.4741C83.094 28.8135 83.3144 29.1389 83.8605 29.1389C84.4455 29.1375 85.0429 28.8496 85.0429 27.8468Z" fill="#006633"/>
<path d="M90.9293 23.9077H92.1892V25.6421H90.9293V28.0677C90.9293 28.6018 91.2148 28.745 91.6445 28.745C91.8524 28.745 92.0478 28.7061 92.1643 28.6797V30.3222C92.0866 30.3612 91.7609 30.5045 91.1372 30.5045C89.7982 30.5045 88.9804 29.7089 88.9804 28.4182V25.6407H87.8369V23.9077H88.1613C88.8363 23.9077 89.162 23.4515 89.162 22.852V22.0175H90.9293V23.9077Z" fill="#006633"/>
<path d="M99.3882 28.5236C99.0763 29.6447 98.0492 30.5835 96.4123 30.5835C94.6325 30.5835 93.0469 29.3053 93.0469 27.1286C93.0469 25.0424 94.5937 23.7127 96.2695 23.7127C98.271 23.7127 99.5046 24.9519 99.5046 27.0382C99.5046 27.3122 99.4783 27.6126 99.4658 27.6516H94.9694C95.0082 28.3818 95.6707 28.9033 96.4372 28.9033C97.1524 28.9033 97.5544 28.564 97.7374 28.0563L99.3882 28.5236ZM97.5946 26.372C97.5683 25.8769 97.2314 25.2774 96.2958 25.2774C95.4642 25.2774 95.0484 25.8908 95.0096 26.372H97.5946Z" fill="#006633"/>
<path d="M4.00731 36.3955C3.859 36.3955 3.71069 36.3385 3.59704 36.223C3.37249 35.9963 3.37526 35.6291 3.60119 35.4052C4.8944 34.1215 6.6076 33.0575 8.55642 32.3301C10.5538 31.5832 12.8075 31.1882 15.0738 31.1882C19.4815 31.1882 23.5621 32.6291 26.2691 35.1423C26.5034 35.3593 26.5172 35.7251 26.301 35.9602C26.0848 36.1952 25.7202 36.2091 25.486 35.9921C24.2967 34.8892 22.7457 33.974 20.9979 33.3454C19.1516 32.6819 17.1584 32.3454 15.0738 32.3454C10.849 32.3454 6.86402 33.7974 4.41344 36.2286C4.29978 36.3399 4.15285 36.3955 4.00731 36.3955Z" fill="#006633"/>
<path d="M6.25275 38.2336C6.1183 38.2336 5.98246 38.1863 5.87296 38.0904C5.63317 37.8803 5.60961 37.5145 5.81891 37.2739C6.84876 36.0959 8.21266 35.1195 9.76369 34.4491C11.3563 33.762 13.154 33.3976 14.9629 33.3976C18.478 33.3976 21.7311 34.7217 23.8878 37.0319C24.1054 37.2656 24.0944 37.6314 23.8615 37.8497C23.6286 38.0681 23.2641 38.057 23.0465 37.8233C22.122 36.833 20.9161 36.0124 19.5591 35.4505C18.1273 34.8566 16.5818 34.5562 14.9629 34.5562C11.6848 34.5562 8.58968 35.858 6.68659 38.0375C6.57293 38.1668 6.41353 38.2336 6.25275 38.2336Z" fill="#006633"/>
<path d="M8.75988 39.451C8.60187 39.451 8.44524 39.3857 8.3302 39.2591C8.11674 39.0213 8.13615 38.6555 8.37317 38.4427C9.80083 37.1547 11.7247 36.3022 13.7927 36.0407C14.1088 36.0003 14.3971 36.2257 14.4373 36.5428C14.4775 36.8599 14.2529 37.1492 13.9369 37.1895C12.1003 37.4218 10.3982 38.1728 9.14383 39.305C9.03433 39.4024 8.89711 39.451 8.75988 39.451Z" fill="#006633"/>
<path d="M12.8812 40.0004C12.6594 40.0004 12.4473 39.871 12.3531 39.6541C12.2256 39.3606 12.3586 39.0199 12.6511 38.8919C14.1134 38.2507 15.7102 38.1019 17.1489 38.4732C17.4566 38.5525 17.6424 38.8683 17.5634 39.1784C17.4844 39.4872 17.1697 39.6735 16.8606 39.5943C15.6714 39.2869 14.3393 39.4135 13.1127 39.9517C13.0378 39.9851 12.9588 40.0004 12.8812 40.0004Z" fill="#006633"/>
<path d="M21.368 39.7136C21.2141 39.7136 21.0589 39.651 20.9452 39.5286C20.0332 38.5453 18.8051 37.8999 17.4883 37.7122C17.1737 37.6677 16.9533 37.3742 16.9991 37.0571C17.0434 36.74 17.3359 36.5202 17.6519 36.5661C19.2293 36.7914 20.6985 37.5634 21.7907 38.74C22.0083 38.9737 21.9945 39.3395 21.7616 39.5578C21.6493 39.6621 21.508 39.7136 21.368 39.7136Z" fill="#006633"/>
<path d="M27.3808 34.3334C27.2367 34.3334 27.0925 34.2792 26.9803 34.1721C25.1687 32.4224 22.7361 31.0955 19.9445 30.3347C19.6368 30.2513 19.4553 29.9328 19.5384 29.6254C19.6216 29.3166 19.939 29.1344 20.2453 29.2179C23.2226 30.0287 25.8284 31.453 27.7787 33.3375C28.0087 33.5587 28.0143 33.9259 27.7939 34.1554C27.683 34.2736 27.5319 34.3334 27.3808 34.3334Z" fill="#95C11F"/>
<path d="M2.53418 34.3625C2.37894 34.3625 2.22509 34.2999 2.11143 34.1775C1.8952 33.9438 1.90768 33.578 2.14054 33.3597C4.2945 31.3499 7.09438 29.9159 10.2366 29.2108C10.5471 29.1412 10.8562 29.3374 10.9255 29.6489C10.9948 29.9605 10.7994 30.2706 10.4889 30.3402C7.54486 31.0008 4.92933 32.3374 2.92644 34.2067C2.81556 34.311 2.67418 34.3625 2.53418 34.3625Z" fill="#95C11F"/>
<path d="M28.4967 21.2797C26.728 21.1545 24.9927 20.8833 23.3737 20.1184C21.9641 19.4535 20.7679 18.4966 19.7616 17.3075C19.1836 16.6246 18.643 15.9111 18.0637 15.2296C17.5453 14.619 16.9465 14.1002 16.1911 13.7956C14.9353 13.2879 13.7724 13.4966 12.6829 14.2587C11.8956 14.8081 11.3218 15.5634 10.7507 16.3158C9.74442 17.6399 8.59813 18.8054 7.16908 19.6733C6.36239 20.1629 5.4947 20.505 4.58959 20.7484C3.35044 21.0808 2.08633 21.2491 0.804211 21.2797C0.71273 21.2825 0.619862 21.2853 0.528381 21.2797C0.244235 21.263 0.028006 21.0502 0.0252339 20.786C0.0224617 20.5259 0.238691 20.3145 0.526996 20.2936C1.184 20.2449 1.84377 20.2157 2.498 20.1448C5.43371 19.8305 7.78727 18.4827 9.60442 16.1475C10.2337 15.338 10.8893 14.5327 11.6323 13.8317C12.877 12.6551 14.3808 12.2587 16.0594 12.6954C17.0407 12.9513 17.8585 13.5049 18.5266 14.2532C19.2266 15.039 19.8656 15.8791 20.5517 16.6774C22.0639 18.4368 23.9337 19.6024 26.2374 19.9807C27.1813 20.1364 28.1418 20.1976 29.0955 20.2881C29.4461 20.3214 29.6707 20.4925 29.6707 20.7818C29.6707 21.0808 29.4337 21.2797 29.0761 21.2825C28.8806 21.2811 28.6879 21.2797 28.4967 21.2797Z" fill="#95C11F"/>
<path d="M14.8531 8.49036C17.111 8.58354 19.1069 9.35685 20.798 10.8645C21.4453 11.4417 22.0357 12.0843 22.6331 12.7157C23.4093 13.5363 24.2535 14.2526 25.2875 14.7352C26.4296 15.2693 27.6355 15.4752 28.8774 15.5489C28.9606 15.5545 29.0451 15.5489 29.1269 15.5642C29.3584 15.6045 29.5303 15.809 29.533 16.0399C29.5358 16.2833 29.3625 16.4947 29.1186 16.5336C29.0285 16.5475 28.9356 16.5461 28.8441 16.542C27.2599 16.4613 25.7366 16.1497 24.3283 15.3723C23.4177 14.8688 22.6428 14.2039 21.9387 13.4459C21.2055 12.6559 20.4903 11.8465 19.624 11.1928C18.2504 10.158 16.709 9.56131 14.9931 9.49594C13.887 9.45421 12.8266 9.73516 11.8092 10.1719C10.4675 10.7477 9.39192 11.6726 8.41474 12.7352C7.69536 13.5169 6.99124 14.3138 6.10553 14.9188C5.01192 15.6643 3.81573 16.1567 2.50727 16.3528C1.90572 16.4432 1.29861 16.4947 0.69151 16.5406C0.429542 16.5614 0.229948 16.389 0.173118 16.1553C0.117675 15.93 0.209156 15.7464 0.393504 15.6393C0.507163 15.5725 0.662403 15.5614 0.799624 15.5531C1.85443 15.4905 2.88983 15.3375 3.88504 14.9633C5.13389 14.4946 6.15543 13.706 7.04807 12.7297C7.81041 11.8965 8.56859 11.0579 9.47925 10.3805C11.0732 9.19273 12.8627 8.5599 14.8531 8.49036Z" fill="#95C11F"/>
<path d="M14.9855 4.2041C16.5823 4.24305 18.2456 4.6311 19.8493 5.30148C21.6886 6.07062 23.2784 7.18886 24.6423 8.64368C25.2661 9.3099 25.9258 9.94969 26.7547 10.3572C27.2606 10.6062 27.7998 10.7898 28.3334 10.9789C28.6425 11.0888 28.8269 11.3155 28.7659 11.5881C28.7008 11.876 28.461 12.0179 28.1297 11.9608C28.0798 11.9525 28.0313 11.9428 27.9828 11.9289C27.1428 11.691 26.3292 11.3781 25.6306 10.8454C25.0873 10.4309 24.5702 9.97889 24.0768 9.506C23.3353 8.79528 22.6353 8.03449 21.7676 7.46981C19.5693 6.04002 17.1935 5.15266 14.5434 5.21247C13.009 5.24724 11.5467 5.65893 10.137 6.26534C8.47094 6.98301 7.02942 8.01085 5.79027 9.3391C5.12218 10.0554 4.40974 10.7397 3.5268 11.1834C2.92663 11.4852 2.28349 11.7035 1.65005 11.9358C1.5156 11.9859 1.32987 11.9706 1.19126 11.9191C0.99721 11.8468 0.908502 11.6646 0.927907 11.4504C0.948698 11.2154 1.08315 11.0526 1.30631 11.0026C2.82406 10.6535 4.00777 9.76749 5.0501 8.65759C6.14233 7.49763 7.37872 6.53933 8.79113 5.78967C10.4849 4.89118 12.9812 4.20271 14.9855 4.2041Z" fill="#95C11F"/>
<path d="M14.9352 0.981942C11.8553 1.02784 9.1414 1.93467 6.80586 3.89854C6.72963 3.96252 6.65478 4.03067 6.57161 4.0877C6.354 4.23791 6.07124 4.21287 5.90907 4.03346C5.7164 3.82066 5.7067 3.54527 5.9354 3.33803C6.26806 3.03622 6.61874 2.74831 6.98467 2.48683C9.32159 0.815037 11.9482 0.00278744 14.7994 5.75483e-06C18.1232 -0.00277593 21.1171 1.0028 23.6828 3.17391C23.7271 3.21146 23.7715 3.25041 23.8117 3.29213C24.039 3.52162 24.0639 3.82622 23.8713 4.03206C23.6841 4.23235 23.3917 4.24486 23.1519 4.04041C22.3105 3.31856 21.3999 2.70798 20.3991 2.22953C18.9188 1.52298 17.3608 1.12937 15.7267 1.02506C15.4439 1.00698 15.1611 0.994459 14.9352 0.981942Z" fill="#95C11F"/>
<path d="M10.9404 7.22829C11.1982 7.22272 11.4034 7.38545 11.4505 7.61494C11.5032 7.87364 11.3715 8.08087 11.1054 8.213C10.5981 8.46475 10.0838 8.70675 9.59731 8.99605C8.73655 9.50649 8.03104 10.2116 7.30612 10.8932C6.64912 11.5107 5.96717 12.1018 5.29492 12.7013C5.22007 12.768 5.13414 12.8209 5.04958 12.8737C4.78069 13.0434 4.50624 13.0031 4.3413 12.7722C4.18051 12.5483 4.21655 12.2826 4.45496 12.0809C4.66426 11.9029 4.90127 11.7541 5.10226 11.5677C5.83965 10.8876 6.56873 10.2005 7.2978 9.51205C8.29301 8.57323 9.41296 7.82913 10.6743 7.302C10.7283 7.27975 10.7838 7.26028 10.8392 7.24498C10.878 7.23385 10.921 7.23246 10.9404 7.22829Z" fill="#95C11F"/>
<path d="M7.06804 22.24C6.80746 22.2456 6.59123 22.0884 6.54272 21.8756C6.48866 21.6378 6.55658 21.4347 6.77835 21.3207C7.10408 21.1524 7.44229 21.0091 7.77079 20.845C9.48121 19.991 10.8271 18.742 11.807 17.0939C11.9775 16.8074 12.1605 16.525 12.3601 16.2566C12.5223 16.0382 12.8023 16.0035 13.0088 16.1384C13.2389 16.29 13.3179 16.5501 13.1765 16.7935C12.2603 18.3651 11.2235 19.8338 9.68496 20.8714C8.92123 21.386 8.12701 21.8408 7.26764 22.176C7.19002 22.208 7.10963 22.2275 7.06804 22.24Z" fill="#95C11F"/>
<path d="M5.9279 17.6121C5.64237 17.6121 5.4802 17.5023 5.40258 17.295C5.31942 17.0753 5.37624 16.8736 5.56891 16.7373C5.85583 16.5356 6.15799 16.3576 6.4463 16.1573C7.28488 15.5732 7.93079 14.7901 8.59056 14.0224C9.38894 13.0933 10.2275 12.2087 11.292 11.5773C11.3641 11.5355 11.4362 11.491 11.5138 11.4618C11.791 11.3589 12.0294 11.4423 12.1583 11.6788C12.2858 11.9125 12.2165 12.1531 11.9712 12.3325C11.554 12.6385 11.091 12.8986 10.7307 13.2602C9.92951 14.0641 9.17826 14.9195 8.40899 15.7554C7.76446 16.4563 7.02152 17.0335 6.20096 17.5106C6.10116 17.569 5.98335 17.5927 5.9279 17.6121Z" fill="#95C11F"/>
<path d="M20.8386 3.58234C21.0382 3.67413 21.3071 3.78262 21.5635 3.91753C23.741 5.0608 25.6081 6.62133 27.3795 8.30704C27.6581 8.57269 27.6817 8.85086 27.4696 9.07896C27.2589 9.30567 26.9581 9.28758 26.6781 9.02193C25.4334 7.8425 24.1388 6.72426 22.7098 5.7757C22.0861 5.36123 21.4166 5.0163 20.7679 4.64077C20.6667 4.58236 20.5558 4.53646 20.4657 4.46552C20.2925 4.32783 20.2287 4.14007 20.3036 3.92727C20.3756 3.71586 20.5378 3.61015 20.8386 3.58234Z" fill="#95C11F"/>
<path d="M9.60329 3.98982C9.60329 4.21791 9.47993 4.37508 9.28727 4.46409C6.9739 5.53087 5.05141 7.14007 3.19961 8.84942C3.15665 8.88976 3.11506 8.9301 3.06793 8.96626C2.83923 9.14429 2.57172 9.13455 2.38876 8.94678C2.19471 8.74511 2.18085 8.4586 2.38876 8.24719C2.68815 7.94538 3.00279 7.65608 3.32159 7.37513C4.61757 6.22907 5.96622 5.14978 7.46873 4.28189C7.92337 4.01902 8.39463 3.78536 8.86729 3.55726C9.22767 3.3834 9.60468 3.61568 9.60329 3.98982Z" fill="#95C11F"/>
<path d="M28.4637 14.202C26.7546 14.1519 25.2854 13.4913 24.0102 12.387C23.2784 11.7541 22.5867 11.0712 21.884 10.405C21.6095 10.1449 21.5901 9.88622 21.7966 9.65395C22.0073 9.41751 22.2915 9.4189 22.5687 9.6776C23.1176 10.1922 23.6526 10.7221 24.2043 11.2312C24.9971 11.9614 25.8634 12.5775 26.8974 12.9238C27.5142 13.1297 28.1463 13.2145 28.7936 13.2215C29.0375 13.2243 29.2385 13.3355 29.2898 13.565C29.323 13.7124 29.2621 13.9044 29.1831 14.0435C29.1345 14.1297 28.9779 14.1728 28.8629 14.1965C28.7354 14.2215 28.5981 14.202 28.4637 14.202Z" fill="#95C11F"/>
<path d="M14.8307 14.5347C15.801 14.5222 16.4663 15.0632 16.9999 15.7865C17.4615 16.4109 17.8648 17.0772 18.3001 17.7211C18.7893 18.4458 19.3743 19.0855 20.0521 19.6405C20.3986 19.9242 20.3709 20.3721 20.0035 20.5445C19.7596 20.6586 19.5545 20.5515 19.3881 20.3915C18.9307 19.952 18.4401 19.5362 18.0506 19.041C17.5058 18.3456 17.054 17.5779 16.5356 16.8602C16.2736 16.4972 15.9742 16.155 15.6568 15.8393C15.3269 15.5111 14.9056 15.468 14.4662 15.5834C14.1377 15.6696 13.8812 15.5611 13.7911 15.2941C13.6955 15.0104 13.841 14.7545 14.1668 14.6376C14.2444 14.6098 14.3262 14.5834 14.408 14.5723C14.5466 14.5528 14.6893 14.5472 14.8307 14.5347Z" fill="#95C11F"/>
<path d="M14.6854 10.5225C16.6176 10.5753 18.177 11.2234 19.5187 12.3959C19.9886 12.8062 20.4058 13.2791 20.8452 13.727C20.9034 13.7854 20.9505 13.8577 20.9893 13.9314C21.0974 14.1345 21.0489 14.3681 20.8687 14.5211C20.6899 14.6727 20.4834 14.7145 20.2963 14.5643C20.1036 14.4071 19.9359 14.2179 19.7654 14.0357C19.0253 13.2416 18.2186 12.5364 17.2178 12.0816C16.1644 11.6018 15.0763 11.4098 13.9259 11.6073C13.7568 11.6365 13.553 11.6185 13.4005 11.5475C13.2328 11.4696 13.1441 11.2819 13.1885 11.0774C13.2411 10.841 13.3992 10.6921 13.6334 10.656C14.0284 10.5934 14.4262 10.5545 14.6854 10.5225Z" fill="#95C11F"/>
<path d="M28.8954 18.8747C27.4373 18.762 25.9847 18.6007 24.6111 18.0583C23.498 17.6188 22.5139 16.9609 21.6546 16.1264C21.394 15.8733 21.3884 15.5937 21.6047 15.3739C21.8209 15.1542 22.0856 15.1556 22.3559 15.4115C23.0337 16.0555 23.785 16.6035 24.6388 16.972C25.2168 17.2224 25.8266 17.4254 26.4435 17.5464C27.3 17.7147 28.1761 17.794 29.0451 17.8928C29.4512 17.9387 29.6896 18.1139 29.6716 18.4157C29.655 18.7203 29.3958 18.8984 28.9952 18.8803C28.962 18.8789 28.9287 18.8775 28.8954 18.8747Z" fill="#95C11F"/>
<path d="M29.1133 23.7581C28.1098 23.5939 27.0952 23.4799 26.1055 23.2518C24.9703 22.9903 23.8517 22.6509 22.7401 22.2991C22.2439 22.1419 21.7796 21.8776 21.3111 21.6426C21.099 21.5369 21.0491 21.3241 21.1018 21.1001C21.1531 20.8887 21.3069 20.7663 21.5121 20.751C21.6368 20.7413 21.781 20.7789 21.8932 20.8387C22.9813 21.4061 24.1331 21.8011 25.3279 22.0515C26.5186 22.3004 27.7217 22.4868 28.9193 22.6996C29.0177 22.7177 29.1188 22.7163 29.2173 22.733C29.5028 22.7831 29.6885 23.0139 29.6622 23.2782C29.6372 23.5508 29.4182 23.7275 29.1133 23.7581Z" fill="#95C11F"/>
<path d="M14.7036 2.13118C16.2588 2.12283 17.6269 2.34537 18.9575 2.79878C19.189 2.87806 19.322 3.04357 19.3179 3.28558C19.3137 3.50533 19.189 3.67641 18.9797 3.73482C18.8619 3.7682 18.7136 3.7543 18.5944 3.71535C16.9505 3.18266 15.2705 2.98933 13.556 3.19239C12.8796 3.27306 12.2156 3.45248 11.5461 3.58879C11.4159 3.61521 11.2883 3.6625 11.158 3.68336C10.8947 3.72648 10.6771 3.59852 10.6022 3.36486C10.526 3.1298 10.6133 2.87806 10.8489 2.77514C11.0915 2.66944 11.3507 2.59572 11.6099 2.53174C12.6744 2.27026 13.7528 2.10753 14.7036 2.13118Z" fill="#95C11F"/>
<path d="M14.8008 6.40625C16.9146 6.48136 18.8565 7.03631 20.6376 8.13925C20.8663 8.28111 21.0715 8.4494 21.0091 8.75956C20.9356 9.12118 20.5517 9.25192 20.1927 9.04885C19.8808 8.87083 19.5773 8.67611 19.2557 8.51894C17.3221 7.57456 15.3054 7.15592 13.1583 7.57595C13.0045 7.60655 12.7869 7.57039 12.6746 7.47442C12.5651 7.37984 12.4986 7.16844 12.5083 7.01405C12.5221 6.78317 12.7162 6.65521 12.9352 6.61488C13.2886 6.5509 13.6435 6.50083 13.9997 6.4591C14.2755 6.4299 14.5513 6.42294 14.8008 6.40625Z" fill="#95C11F"/>
<path d="M0.544885 23.7156C0.256581 23.7128 0.0458968 23.5237 0.0251056 23.258C0.00431446 23.0049 0.20391 22.7712 0.493601 22.7281C0.906652 22.6683 1.32386 22.6391 1.73276 22.5598C2.78063 22.3582 3.82573 22.1398 4.87084 21.9228C5.1439 21.8658 5.41002 22.0021 5.48764 22.258C5.56526 22.5112 5.44883 22.7838 5.17577 22.8589C4.61441 23.0146 4.04751 23.1649 3.47367 23.2678C2.54638 23.4333 1.61217 23.5599 0.68072 23.7017C0.632207 23.7101 0.582309 23.7128 0.544885 23.7156Z" fill="#95C11F"/>
<path d="M0.843036 18.8999C0.83472 18.8999 0.826402 18.8999 0.818086 18.9013C0.662845 18.9054 0.443845 18.8846 0.355136 18.7371C0.256724 18.5716 0.366225 18.3546 0.466023 18.2156C0.653143 17.9555 0.877688 17.8623 1.18956 17.8164C1.9713 17.7009 2.75444 17.5855 3.53619 17.4701C3.77182 17.4353 4.03656 17.4075 4.22645 17.5521C4.33318 17.6342 4.39971 17.7649 4.40248 17.8998C4.40526 18.0348 4.34566 18.1683 4.24309 18.2545C4.13636 18.3449 3.99498 18.3797 3.85776 18.4103C3.10512 18.58 2.34416 18.7163 1.57904 18.8248C1.33509 18.8581 1.08837 18.8915 0.843036 18.8999Z" fill="#95C11F"/>
<path d="M1.2211 14.2006C1.09635 14.2006 0.971605 14.2062 0.846858 14.1993C0.568256 14.184 0.370045 13.9809 0.368659 13.7208C0.367273 13.4663 0.569642 13.2479 0.839927 13.2257C1.03952 13.209 1.24189 13.2215 1.43871 13.1909C1.84899 13.1283 2.25789 13.0532 2.66539 12.9684C3.00082 12.8988 3.2517 13.0045 3.33348 13.2743C3.41942 13.5622 3.28081 13.8404 2.94399 13.9197C2.37986 14.0532 1.80464 14.1436 1.23357 14.2521C1.22664 14.2354 1.22387 14.2187 1.2211 14.2006Z" fill="#95C11F"/>
<path d="M29.299 26.6245C29.2061 26.6245 29.1119 26.5995 29.0273 26.548C26.9704 25.3004 24.183 24.3811 20.9686 23.8901C20.6817 23.8456 20.4835 23.5772 20.5279 23.2879C20.5722 23 20.8397 22.8011 21.128 22.8456C24.4782 23.3574 27.3987 24.3254 29.5734 25.644C29.8229 25.7942 29.9019 26.1196 29.7522 26.37C29.651 26.5341 29.4764 26.6245 29.299 26.6245Z" fill="#95C11F"/>
<path d="M0.526822 26.6478C0.345246 26.6478 0.167827 26.5533 0.0708012 26.3836C-0.0747371 26.1305 0.0111997 25.8078 0.263466 25.6617C2.57683 24.321 5.726 23.2945 9.37139 22.6951C9.65831 22.6478 9.92859 22.8425 9.97572 23.1304C10.0228 23.4183 9.82879 23.6895 9.54188 23.7368C6.01985 24.3168 2.99404 25.2987 0.790176 26.5755C0.707012 26.6256 0.616917 26.6478 0.526822 26.6478Z" fill="#95C11F"/>
<path d="M28.5671 31.7441C28.4424 31.7441 28.3162 31.7038 28.2109 31.6203C26.452 30.2309 24.043 29.1321 21.2472 28.4408C20.9382 28.3644 20.7496 28.0514 20.8245 27.7413C20.9007 27.4311 21.214 27.2419 21.5217 27.317C24.4768 28.0472 27.0355 29.2197 28.9234 30.7107C29.1742 30.9082 29.2172 31.2726 29.0204 31.523C28.9081 31.669 28.739 31.7441 28.5671 31.7441Z" fill="#95C11F"/>
<path d="M29.3916 29.3448C29.2821 29.3448 29.1712 29.3128 29.0728 29.2474C27.1184 27.94 24.4862 26.9553 21.4591 26.399C21.1458 26.342 20.9379 26.0401 20.9961 25.7258C21.0529 25.4115 21.3537 25.2029 21.667 25.2613C24.8466 25.8468 27.6285 26.8927 29.7118 28.285C29.9765 28.4616 30.0486 28.8218 29.8712 29.0875C29.7617 29.2544 29.5787 29.3448 29.3916 29.3448Z" fill="#95C11F"/>
<path d="M1.22954 31.5815C1.04935 31.5815 0.871928 31.4967 0.759656 31.3381C0.575307 31.078 0.634909 30.7164 0.894105 30.5314C2.87343 29.1155 5.56519 28.0293 8.67555 27.3881C8.98742 27.3241 9.29236 27.5258 9.35612 27.8388C9.41988 28.1517 9.21889 28.4577 8.90703 28.5217C5.95191 29.1295 3.41261 30.1503 1.56219 31.4744C1.4624 31.5467 1.34597 31.5815 1.22954 31.5815Z" fill="#95C11F"/>
<path d="M0.92436 29.3338C0.74417 29.3338 0.566752 29.249 0.45448 29.0904C0.270131 28.8303 0.329733 28.4687 0.58893 28.2837C2.56825 26.8679 5.26001 25.7816 8.37037 25.1404C8.68224 25.0765 8.98718 25.2781 9.05094 25.5911C9.1147 25.904 8.91372 26.21 8.60185 26.274C5.64673 26.8818 3.10743 27.9027 1.25702 29.2267C1.15722 29.2991 1.0394 29.3338 0.92436 29.3338Z" fill="#95C11F"/>
<path d="M12.4239 20.7832C12.2409 20.7832 12.0607 20.6956 11.9498 20.5342C11.7683 20.2713 11.8348 19.9111 12.0954 19.7289C12.9437 19.1406 13.6769 18.1879 14.1592 17.0474C14.284 16.7525 14.6222 16.6162 14.9147 16.74C15.2085 16.8652 15.3443 17.2045 15.221 17.498C14.6541 18.8374 13.7781 19.9681 12.7524 20.6789C12.6512 20.7498 12.5361 20.7832 12.4239 20.7832Z" fill="#95C11F"/>
<path d="M16.9644 20.5519C16.8271 20.5519 16.6913 20.5032 16.5804 20.4045C16.2727 20.1291 15.9303 19.7132 15.5908 19.2028C15.4147 18.9372 15.4854 18.5783 15.7502 18.4003C16.0149 18.2237 16.3725 18.2946 16.5499 18.5602C16.8313 18.9844 17.1154 19.3322 17.3483 19.5408C17.5853 19.7536 17.6061 20.1194 17.394 20.3572C17.2804 20.4866 17.1224 20.5519 16.9644 20.5519Z" fill="#95C11F"/>
<path d="M15.0848 30.2807C12.5718 30.2807 10.5273 28.2292 10.5273 25.7076C10.5273 23.186 12.5718 21.1345 15.0848 21.1345C17.5977 21.1345 19.6422 23.186 19.6422 25.7076C19.6422 28.2292 17.5977 30.2807 15.0848 30.2807ZM15.0848 22.3862C13.2593 22.3862 11.7748 23.8758 11.7748 25.7076C11.7748 27.5393 13.2593 29.0289 15.0848 29.0289C16.9102 29.0289 18.3947 27.5393 18.3947 25.7076C18.3947 23.8758 16.9102 22.3862 15.0848 22.3862Z" fill="#006633"/>
</svg>
